<svg width="1100" height="117" viewBox="0 0 1100 117" fill="none" xmlns="http://www.w3.org/2000/svg">
<rect y="0.0966797" width="1100" height="116" fill="#3299FE"/>
<ellipse opacity="0.2" cx="868.292" cy="7.1467" rx="2.44824" ry="1.31834" fill="white"/>
<ellipse opacity="0.2" cx="846.869" cy="34.8318" rx="2.44824" ry="1.31834" fill="white"/>
<ellipse opacity="0.2" cx="832.792" cy="3.85093" rx="2.44824" ry="1.31834" fill="white"/>
<ellipse opacity="0.2" cx="873.188" cy="41.753" rx="2.44824" ry="1.31833" fill="white"/>
<ellipse opacity="0.2" cx="483.525" cy="32.2992" rx="2.44827" ry="1.31834" fill="white"/>
<ellipse opacity="0.2" cx="509.844" cy="39.2204" rx="2.44824" ry="1.31833" fill="white"/>
<ellipse opacity="0.2" cx="981.448" cy="28.1638" rx="2.44824" ry="1.31834" fill="white"/>
<ellipse opacity="0.2" cx="345.292" cy="4.61423" rx="2.44824" ry="1.31834" fill="white"/>
<ellipse opacity="0.2" cx="323.869" cy="32.2992" rx="2.44824" ry="1.31834" fill="white"/>
<ellipse opacity="0.2" cx="309.792" cy="1.31834" rx="2.44824" ry="1.31834" fill="white"/>
<ellipse opacity="0.2" cx="350.188" cy="39.2204" rx="2.44824" ry="1.31833" fill="white"/>
<ellipse opacity="0.2" cx="433.948" cy="14.7446" rx="2.44824" ry="1.31834" fill="white"/>
<ellipse opacity="0.2" cx="412.526" cy="42.4297" rx="2.44827" ry="1.31833" fill="white"/>
<ellipse opacity="0.2" cx="398.448" cy="11.4487" rx="2.44824" ry="1.31834" fill="white"/>
<ellipse opacity="0.2" cx="438.844" cy="49.3508" rx="2.44824" ry="1.31833" fill="white"/>
<ellipse opacity="0.2" cx="260.948" cy="13.7315" rx="2.44824" ry="1.31834" fill="white"/>
<ellipse opacity="0.2" cx="239.526" cy="41.4166" rx="2.44827" ry="1.31833" fill="white"/>
<ellipse opacity="0.2" cx="225.448" cy="10.4356" rx="2.44824" ry="1.31834" fill="white"/>
<ellipse opacity="0.2" cx="265.844" cy="48.3379" rx="2.44824" ry="1.31834" fill="white"/>
<ellipse opacity="0.2" cx="734.948" cy="5.62717" rx="2.4483" ry="1.31834" fill="white"/>
<ellipse opacity="0.2" cx="713.526" cy="33.3122" rx="2.44824" ry="1.31834" fill="white"/>
<ellipse opacity="0.2" cx="699.448" cy="2.3314" rx="2.44824" ry="1.31834" fill="white"/>
<ellipse opacity="0.2" cx="739.844" cy="40.2335" rx="2.44824" ry="1.31834" fill="white"/>
<path opacity="0.9" d="M1 67.1136C1 67.1136 48.744 81.6522 69.2 81.6522C89.656 81.6522 102.275 80.0476 144.205 67.1136C186.136 54.1796 219.211 51.5989 219.211 51.5989C219.211 51.5989 270.637 48.2535 309.238 72.4283C347.84 96.6031 382.859 77.9781 382.859 77.9781C382.859 77.9781 444.984 46.1484 488.927 50.164C532.869 54.1796 573.881 79.9364 594.237 85.3323C614.593 90.7282 655.692 99.4721 716.973 72.4283C778.255 45.3845 807.632 36.5894 863.954 45.3845C920.275 54.1796 906.045 64.4116 964.929 67.1136C1023.81 69.8156 1092 45.3845 1092 45.3845" stroke="white" stroke-opacity="0.2" stroke-width="2.5"/>
<ellipse opacity="0.2" cx="1002.45" cy="43.8658" rx="2.44824" ry="1.31834" fill="white"/>
</svg>
