<svg width="530" height="148" viewBox="0 0 530 148" fill="none" xmlns="http://www.w3.org/2000/svg">
<rect width="530" height="148" fill="#3299FE"/>
<mask id="mask0_327_674" style="mask-type:alpha" maskUnits="userSpaceOnUse" x="0" y="70" width="530" height="78">
<rect y="70" width="530" height="78" rx="12" fill="#C4C4C4"/>
</mask>
<g mask="url(#mask0_327_674)">
<path opacity="0.3" d="M-96.3633 123C-70.8926 108.027 -8.33232 98.8396 90.8888 95.5C202.993 91.7267 255.064 120.574 360.05 113.5C437.207 108.301 419.015 95.1032 478.533 86C528.502 78.3574 562.529 74.6747 626.364 70" stroke="white"/>
<path opacity="0.3" d="M-96.3633 135C-70.8926 120.027 -8.33232 110.84 90.8888 107.5C202.993 103.727 255.064 132.574 360.05 125.5C437.207 120.301 419.015 107.103 478.533 98C528.502 90.3574 562.528 86.6747 626.364 82" stroke="white"/>
<path opacity="0.3" d="M-96.3633 131C-70.8926 116.027 -8.33232 106.84 90.8888 103.5C202.993 99.7267 255.064 128.574 360.05 121.5C437.207 116.301 419.015 103.103 478.533 94C528.502 86.3574 562.529 82.6747 626.364 78" stroke="white"/>
<path opacity="0.3" d="M-96.3633 127C-70.8926 112.027 -8.33232 102.84 90.8888 99.5C202.993 95.7267 255.064 124.574 360.05 117.5C437.207 112.301 419.015 99.1032 478.533 90C528.502 82.3574 562.529 78.6747 626.364 74" stroke="white"/>
<path d="M-19.2734 89C1.86318 103.973 53.7783 113.16 136.116 116.5C229.145 120.273 272.356 91.4264 359.477 98.5C423.505 103.699 408.408 116.897 457.8 126C499.266 133.643 527.502 137.325 580.476 142" stroke="white" stroke-width="1.2"/>
<path d="M-19.2734 77C1.86318 91.9727 53.7783 101.16 136.116 104.5C229.145 108.273 272.356 79.4264 359.477 86.5C423.505 91.6985 408.408 104.897 457.8 114C499.266 121.643 527.502 125.325 580.476 130" stroke="white" stroke-width="1.2"/>
<path d="M-19.2734 81C1.86318 95.9727 53.7783 105.16 136.116 108.5C229.145 112.273 272.356 83.4264 359.477 90.5C423.505 95.6985 408.408 108.897 457.8 118C499.266 125.643 527.502 129.325 580.476 134" stroke="white" stroke-width="1.2"/>
<path d="M-19.2734 85C1.86318 99.9727 53.7783 109.16 136.116 112.5C229.145 116.273 272.356 87.4264 359.477 94.5C423.505 99.6985 408.409 112.897 457.8 122C499.266 129.643 527.502 133.325 580.476 138" stroke="white" stroke-width="1.2"/>
</g>
<ellipse opacity="0.2" cx="195.248" cy="119.226" rx="15.3015" ry="16.2671" fill="white"/>
<ellipse opacity="0.2" cx="15.3015" cy="129.637" rx="15.3015" ry="16.2671" fill="white"/>
<ellipse opacity="0.2" cx="116.292" cy="56.1096" rx="2.44825" ry="2.60274" fill="white"/>
<ellipse opacity="0.2" cx="94.8696" cy="110.767" rx="2.44825" ry="2.60274" fill="white"/>
<ellipse opacity="0.2" cx="80.7922" cy="49.6027" rx="2.44825" ry="2.60274" fill="white"/>
<ellipse opacity="0.2" cx="121.188" cy="124.431" rx="2.44825" ry="2.60274" fill="white"/>
<ellipse opacity="0.2" cx="514.248" cy="121.226" rx="15.3015" ry="16.2671" fill="white"/>
<ellipse opacity="0.2" cx="334.302" cy="131.637" rx="15.3015" ry="16.2671" fill="white"/>
<ellipse opacity="0.2" cx="435.292" cy="58.1096" rx="2.44825" ry="2.60274" fill="white"/>
<ellipse opacity="0.2" cx="413.87" cy="112.767" rx="2.44825" ry="2.60274" fill="white"/>
<ellipse opacity="0.2" cx="399.792" cy="51.6027" rx="2.44825" ry="2.60274" fill="white"/>
<ellipse opacity="0.2" cx="440.188" cy="126.431" rx="2.44825" ry="2.60274" fill="white"/>
</svg>
